<?xml version="1.0" encoding="UTF-8"?>
<svg id="_Слой_1" data-name="Слой 1" xmlns="http://www.w3.org/2000/svg" xmlns:xlink="http://www.w3.org/1999/xlink" viewBox="0 0 1776.02 778">
  <defs>
    <style>
      .cls-1 {
        fill: #fff;
      }

      .cls-2 {
        fill: url(#_Безымянный_градиент_142);
      }

      .cls-3 {
        fill: #6f00ff;
      }

      .cls-4 {
        fill: url(#_Безымянный_градиент_339);
      }

      .cls-5 {
        fill: #8c02cc;
      }
    </style>
    <linearGradient id="_Безымянный_градиент_142" data-name="Безымянный градиент 142" x1="198.06" y1="271.33" x2="402.4" y2="475.67" gradientUnits="userSpaceOnUse">
      <stop offset=".2" stop-color="#1b198e"/>
      <stop offset=".83" stop-color="#6e18d9"/>
      <stop offset="1" stop-color="#8618ef"/>
    </linearGradient>
    <linearGradient id="_Безымянный_градиент_339" data-name="Безымянный градиент 339" x1="183.67" y1="341.21" x2="419.45" y2="341.21" gradientUnits="userSpaceOnUse">
      <stop offset=".03" stop-color="#bb8bef"/>
      <stop offset="1" stop-color="#3d5bea" stop-opacity=".5"/>
    </linearGradient>
  </defs>
  <path d="M517,109.5c1.93,0,1.93-3,0-3s-1.93,3,0,3h0Z"/>
  <path class="cls-3" d="M901.44,294.58c16.26,1.72,21.63,10.22,25.27,24.91,6.21,25.09,8.67,52.14,14.79,77.37l23.08-100.65c1.79-2.42,18.92-1.93,22.73-1.61,16.65,1.39,22.17,8.42,26.48,23.7,7.2,25.56,10.03,53.77,16.96,79.54l21.65-101.61c.38-.55,2.02-1.64,2.47-1.64h35.7c1.32,0,1.91,3.8,1.23,5.05-14.47,48.36-21.66,101.71-36.72,149.55-.66,2.09-1.03,4.42-2.6,6.08-1.59.96-33.52,1.01-37.21.51-1.69-.23-2.87-.37-3.8-1.99l-24.62-100.34-26.54,100.33c-.39.54-.82,1.18-1.43,1.47-1.93.92-32.08.94-36.25.54-2.96-.29-4.67-.64-5.96-3.69l-35.51-155.55c.19-.42,1.83-1.96,1.96-1.96,5.72,0,12.85-.58,18.33,0Z"/>
  <path class="cls-5" d="M501.13,351.51l46.96-54.84c2.13-1.53,3.98-1.89,6.54-2.14,7.18-.69,24.96-.86,31.94,0,1.86.23,4.91,1.13,3.58,3.6l-48.35,58.51,55.87,96.67c.08.81-1.01,2.42-1.5,2.42h-38.6c-.62,0-5.11-2.84-5.55-4.09l-36.43-62.48c-1.94-1.45-12.94,12.76-14.46,14.95v50.18l-1.45,1.45h-34.74c-.17,0-2.41-2.24-2.41-2.41v-156.32c0-3.26,12.42-2.6,14.94-2.4,9.13.73,17.29,3.66,21.25,12.53.41.91,2.41,6.86,2.41,7.24v37.15Z"/>
  <path class="cls-3" d="M1207.32,455.72c-2.01-.43-3.34-2.8-4.23-4.46-4.67-8.76-6.51-22.27-10.62-31.64l-49.34-.11c-3.25,1.95-9.09,31.87-13.97,36.2h-37.15l.66-6.58,54.75-153.67c1.99-1.43,19.59-1.2,23.22-.87,10.55.94,17.65,5.58,22.87,14.76l51.97,143.95c.09.81-1,2.41-1.49,2.41h-36.67ZM1181.75,386.25l-13.52-40.53-14.46,40.53h27.98Z"/>
  <path class="cls-3" d="M1438.31,331.25v25.09h43.9c4.42,0,10.97,6.48,12.38,10.78,1.25,3.84,3.68,24.92-1.76,24.92h-54.52v26.54l1.45,1.45h51.14c4.06,0,10.24,6.84,11.57,10.62,1.45,4.13,3.05,22.81-.68,24.44l-102.17-.71-.84-156.38c.32-2.29,2.01-3.46,4.27-3.45,25.74,1.61,53.74-1.99,79.2,0,8.76.69,16.69,3.99,18.35,13.49.71,4.05,1.13,16.01.41,19.81-.2,1.06-1.67,3.4-2.39,3.4h-60.31Z"/>
  <path class="cls-5" d="M651.66,331.25v25.09h43.9c1.02,0,7.14,3.26,8.25,4.3,6.99,6.56,4.73,20.92,4.3,29.47-.26.43-2.62,1.93-2.89,1.93h-53.55v27.98h52.59c2.63,0,8.59,4.97,9.99,7.38,2.7,4.66,5.65,26.28-.52,28.14l-100.74-1.17-.84-156.38c.32-2.29,2.01-3.46,4.27-3.45,25.62,1.74,53.91-2.16,79.2,0,9.07.78,16.91,4.44,18.55,14.26.59,3.51.84,15.74.2,19.04-.2,1.06-1.67,3.4-2.39,3.4h-60.31Z"/>
  <path class="cls-3" d="M1262.21,294.58c17.82,1.89,21.76,14.48,26.79,29.17,8.31,24.26,13.75,51.92,22.96,75.46.4,1.01.36,2.33,1.86,2.47l32.79-104.72c.46-.54,3.05-2.39,3.4-2.39h33.77c.53,0,1.53,1.64,1.49,2.44l-51.86,156.52-1.48,1.55c-2.87,1.24-33.11,1.15-37.91.64-1.56-.17-3.37-.26-4.38-1.65l-52.09-157.08c-.09-.81,1-2.41,1.49-2.41,7.19,0,16.28-.73,23.16,0Z"/>
  <path class="cls-5" d="M749.6,294.58c26.12,3.1,33.78,42.13,46.32,60.8l28.61-57.28c.5-1.04,3.47-3.52,4.2-3.52h36.67c.49,0,1.59,1.61,1.5,2.42l-53.12,101.31v55.97l-1.45,1.45h-35.7l-1.45-1.45v-56.93l-53.08-100.4c-.22-.81,1.06-2.36,1.46-2.36,7.92,0,18.56-.89,26.05,0Z"/>
  <rect class="cls-2" x="182.34" y="255.61" width="235.78" height="235.78" rx="53.67" ry="53.67"/>
  <path class="cls-4" d="M229.08,426.8c18.62-.44,46.73-4.46,71.04-61.41,20.07-47.04,47.11-55.56,73.78-55.56,19.24,0,34.89,13.38,44.22,23.82v-24.38c0-29.64-24.03-53.67-53.67-53.67h-128.44c-29.64,0-53.67,24.03-53.67,53.67v82.55c0,16.75,18.52,35.64,46.74,34.97Z"/>
  <rect class="cls-1" x="200.44" y="363.98" width="197.33" height="28.02" rx="12.86" ry="12.86"/>
  <circle class="cls-1" cx="298.11" cy="377.99" r="41.63"/>
  <circle class="cls-3" cx="298.11" cy="377.99" r="19.41"/>
</svg>